name C:\Users\antoi\Documents\MyRepositories\predictsim_mtp\Results\Case_40\motion.mot
datacolumns 124
datarows 4
range 0.27816714 0.29485717
endheader 
time	pelvis_tilt	pelvis_list	pelvis_rotation	pelvis_tx	pelvis_ty	pelvis_tz	hip_flexion_l	hip_adduction_l	hip_rotation_l	hip_flexion_r	hip_adduction_r	hip_rotation_r	knee_angle_l	knee_angle_r	ankle_angle_l	ankle_angle_r	subtalar_angle_l	subtalar_angle_r	mtp_angle_l	mtp_angle_r	lumbar_extension	lumbar_bending	lumbar_rotation	arm_flex_l	arm_add_l	arm_rot_l	arm_flex_r	arm_add_r	arm_rot_r	elbow_flex_l	elbow_flex_r	glut_med1_l/activation	glut_med2_l/activation	glut_med3_l/activation	glut_min1_l/activation	glut_min2_l/activation	glut_min3_l/activation	semimem_l/activation	semiten_l/activation	bifemlh_l/activation	bifemsh_l/activation	sar_l/activation	add_long_l/activation	add_brev_l/activation	add_mag1_l/activation	add_mag2_l/activation	add_mag3_l/activation	tfl_l/activation	pect_l/activation	grac_l/activation	glut_max1_l/activation	glut_max2_l/activation	glut_max3_l/activation	iliacus_l/activation	psoas_l/activation	quad_fem_l/activation	gem_l/activation	peri_l/activation	rect_fem_l/activation	vas_med_l/activation	vas_int_l/activation	vas_lat_l/activation	med_gas_l/activation	lat_gas_l/activation	soleus_l/activation	tib_post_l/activation	flex_dig_l/activation	flex_hal_l/activation	tib_ant_l/activation	per_brev_l/activation	per_long_l/activation	per_tert_l/activation	ext_dig_l/activation	ext_hal_l/activation	ercspn_l/activation	intobl_l/activation	extobl_l/activation	glut_med1_r/activation	glut_med2_r/activation	glut_med3_r/activation	glut_min1_r/activation	glut_min2_r/activation	glut_min3_r/activation	semimem_r/activation	semiten_r/activation	bifemlh_r/activation	bifemsh_r/activation	sar_r/activation	add_long_r/activation	add_brev_r/activation	add_mag1_r/activation	add_mag2_r/activation	add_mag3_r/activation	tfl_r/activation	pect_r/activation	grac_r/activation	glut_max1_r/activation	glut_max2_r/activation	glut_max3_r/activation	iliacus_r/activation	psoas_r/activation	quad_fem_r/activation	gem_r/activation	peri_r/activation	rect_fem_r/activation	vas_med_r/activation	vas_int_r/activation	vas_lat_r/activation	med_gas_r/activation	lat_gas_r/activation	soleus_r/activation	tib_post_r/activation	flex_dig_r/activation	flex_hal_r/activation	tib_ant_r/activation	per_brev_r/activation	per_long_r/activation	per_tert_r/activation	ext_dig_r/activation	ext_hal_r/activation	ercspn_r/activation	intobl_r/activation	extobl_r/activation	
          0.27816714	         -8.42993959	         -2.57376743	          4.80718664	          0.37754617	          0.92173067	          0.00422556	         23.09472988	         -1.33308677	         -0.86543603	         11.73786101	          7.18124343	          7.88801982	        -58.87917120	        -10.54055932	          9.73670278	          7.39059803	          2.70679530	        -10.29124741	          2.55627367	          5.00067500	          2.92964210	          2.97109047	         -0.38904118	         -4.20119349	        -13.45376922	         15.91787963	         -1.00321153	        -13.51915552	         11.75667884	         75.47747554	          3.80882093	          0.05000004	          0.05000005	          0.05000005	          0.05000032	          0.05000026	          0.05000019	          0.05000037	          0.05000003	          0.05000001	          0.16085632	          0.27176918	          0.16733536	          0.10182852	          0.05000019	          0.05000010	          0.05000002	          0.40338361	          0.28540449	          0.08512041	          0.05000006	          0.05000002	          0.05000001	          0.12528432	          0.13498425	          0.06591347	          0.24908062	          0.05000029	          0.07000718	          0.05000014	          0.05000015	          0.05000011	          0.05000001	          0.05000003	          0.05000000	          0.05000004	          0.05000025	          0.05000018	          0.34736355	          0.15557576	          0.07763277	          0.56108179	          0.45265153	          0.52899657	          0.09441321	          0.05000010	          0.05061513	          0.44569816	          0.32639557	          0.31078874	          0.44447205	          0.45685428	          0.45268628	          0.05359162	          0.05000486	          0.05413574	          0.05000009	          0.05000025	          0.05000008	          0.05000014	          0.05000122	          0.05413579	          0.09552528	          0.05000155	          0.05000046	          0.05000029	          0.18283355	          0.10583647	          0.07675396	          0.05000003	          0.05000003	          0.05000023	          0.05000116	          0.26377037	          0.09682333	          0.13257034	          0.13863691	          0.11236529	          0.21839702	          0.20576889	          0.08308079	          0.28334552	          0.08336662	          0.08679670	          0.05114161	          0.05640099	          0.09248459	          0.05000251	          0.05000059	          0.05000159	          0.05000005	          0.05000008	          0.05000003	
          0.28373048	         -8.42994079	         -2.45692093	          4.61160027	          0.38405186	          0.92232772	          0.00443160	         23.96926390	         -1.21949249	         -1.00409378	         11.01232231	          7.07733062	          8.11214075	        -58.62395038	         -9.99811943	         10.12557503	          7.25002825	          2.48109692	        -10.21151639	          2.36443197	          5.34955017	          2.88096652	          2.92865879	         -0.35302052	         -4.05970418	        -13.45319765	         15.71354495	         -0.63363024	        -13.50138001	         11.94790142	         73.95627379	          4.44297315	          0.05000004	          0.05000005	          0.05000005	          0.05000029	          0.05000025	          0.05000019	          0.05000032	          0.05000003	          0.05000001	          0.14720694	          0.27657533	          0.17167035	          0.09744606	          0.05000019	          0.05000010	          0.05000002	          0.39221782	          0.27830667	          0.07789758	          0.05000006	          0.05000002	          0.05000001	          0.12837896	          0.13826256	          0.07604753	          0.25720075	          0.05000030	          0.06820482	          0.05000022	          0.05000020	          0.05000018	          0.05000001	          0.05000003	          0.05000000	          0.05000004	          0.05000025	          0.05000018	          0.35364518	          0.15919477	          0.08224868	          0.55893077	          0.44905448	          0.52263910	          0.09302655	          0.05000012	          0.05316470	          0.43359974	          0.31779596	          0.30388395	          0.44218385	          0.45386788	          0.44952091	          0.05394412	          0.05000294	          0.05344417	          0.05000009	          0.05000028	          0.05000008	          0.05000014	          0.05000116	          0.05000255	          0.09146552	          0.06969948	          0.05000046	          0.05000029	          0.17724134	          0.10233997	          0.07324435	          0.05000004	          0.05000004	          0.05000020	          0.05000112	          0.26652779	          0.09783302	          0.12491722	          0.13020127	          0.10611157	          0.23051081	          0.22143687	          0.08168173	          0.28516634	          0.08481946	          0.08646630	          0.05000023	          0.06113994	          0.09439471	          0.05000212	          0.05000052	          0.05000122	          0.05000004	          0.05000008	          0.05000003	
          0.28929382	         -8.43012688	         -2.33894928	          4.41196499	          0.39056141	          0.92287176	          0.00463432	         24.82143780	         -1.10982841	         -1.13928090	         10.28424537	          6.96646038	          8.33207674	        -58.29720779	         -9.44924852	         10.49283838	          7.10843784	          2.25140399	        -10.13092451	          2.18470323	          5.70229693	          2.83320491	          2.88523510	         -0.31691518	         -3.91069529	        -13.45257844	         15.51377071	         -0.27835807	        -13.48658178	         12.12048219	         72.40005135	          5.14146269	          0.05000004	          0.05000005	          0.05000005	          0.05000030	          0.05000025	          0.05000019	          0.05000028	          0.05000002	          0.05000001	          0.13471578	          0.28117119	          0.17649489	          0.09420404	          0.05000019	          0.05000010	          0.05000002	          0.38156062	          0.27033244	          0.07128764	          0.05000006	          0.05000002	          0.05000002	          0.13205310	          0.14203071	          0.08772324	          0.26455738	          0.05000031	          0.06665819	          0.05000057	          0.05000220	          0.05000033	          0.05000001	          0.05000003	          0.05000000	          0.05000004	          0.05000026	          0.05000019	          0.35927582	          0.16236785	          0.08689817	          0.55382092	          0.44544617	          0.51483190	          0.09141263	          0.05000013	          0.05590322	          0.42178101	          0.30909285	          0.29643426	          0.43902720	          0.45078653	          0.44590880	          0.05434582	          0.05000536	          0.05282411	          0.05000010	          0.05000029	          0.05000007	          0.05000014	          0.05000114	          0.05000344	          0.08749730	          0.08901968	          0.05000045	          0.05000030	          0.17162619	          0.09906353	          0.06982506	          0.05000004	          0.05000004	          0.05000022	          0.05000119	          0.26814317	          0.09768640	          0.11796874	          0.12252922	          0.10039589	          0.24260066	          0.23696869	          0.08012271	          0.28698907	          0.08641923	          0.08579517	          0.05000027	          0.06469844	          0.09587907	          0.05000187	          0.05000051	          0.05000120	          0.05000004	          0.05000008	          0.05000004	
          0.29485717	         -8.43052134	         -2.21996008	          4.20847180	          0.39707687	          0.92336078	          0.00483357	         25.64945456	         -1.00429341	         -1.27117268	          9.55413479	          6.84878336	          8.54778750	        -57.89816538	         -8.89506956	         10.83619923	          6.96619215	          2.01869016	        -10.04913287	          2.01643776	          6.05844311	          2.78646499	          2.84091148	         -0.28078777	         -3.75419633	        -13.45196399	         15.31958089	          0.06115714	        -13.47470832	         12.27094702	         70.80970369	          5.90601625	          0.05000004	          0.05000005	          0.05000005	          0.05000027	          0.05000024	          0.05000019	          0.05000023	          0.05000002	          0.05000001	          0.12328455	          0.28727658	          0.18194203	          0.09118467	          0.05000019	          0.05000010	          0.05000002	          0.37149048	          0.26224004	          0.06523858	          0.05000006	          0.05000002	          0.05000002	          0.13681535	          0.14659441	          0.09958697	          0.27042052	          0.05000031	          0.06541780	          0.05170131	          0.05317722	          0.05000834	          0.05000001	          0.05000003	          0.05000000	          0.05000004	          0.05000026	          0.05000019	          0.36423499	          0.16532721	          0.09154588	          0.54574354	          0.44189228	          0.50557890	          0.08982177	          0.05000020	          0.05869725	          0.40996458	          0.30030188	          0.28871214	          0.43577218	          0.44691113	          0.44152085	          0.05449789	          0.05000501	          0.05204890	          0.05000011	          0.05000032	          0.05000007	          0.05000014	          0.05000107	          0.05000283	          0.08351575	          0.10950172	          0.05000045	          0.05000030	          0.16605739	          0.09601269	          0.06666346	          0.05000004	          0.05000004	          0.05000019	          0.05000117	          0.26961980	          0.09427534	          0.11177079	          0.11567816	          0.09525631	          0.25475277	          0.25254271	          0.07854649	          0.28896528	          0.08858246	          0.08542970	          0.05000028	          0.06695575	          0.09674087	          0.05000211	          0.05000054	          0.05000126	          0.05000004	          0.05000006	          0.05000004	
